<?xml version="1.0" encoding="UTF-8"?>
<svg id="LK" xmlns="http://www.w3.org/2000/svg" viewBox="0 0 855.71 663.54">
  <defs>
    <style>
      .cls-1 {
        stroke-width: .93px;
      }

      .cls-1, .cls-2 {
        fill: #be7660;
      }

      .cls-1, .cls-2, .cls-3, .cls-4, .cls-5, .cls-6, .cls-7 {
        stroke: #040000;
        stroke-miterlimit: 10;
      }

      .cls-3 {
        fill: #e3d095;
      }

      .cls-4 {
        fill: none;
      }

      .cls-5 {
        fill: #e7cccc;
      }

      .cls-6 {
        fill: #d8aa97;
      }

      .cls-7 {
        fill: #9f4a4a;
      }
    </style>
  </defs>
  <path class="cls-3" d="M365.29,130.14s18.99,33.38,32.68,31.99c13.69-1.39,10.61-41.17,9.92-49.52,0,0,20.64,17.63,43.28,12.94,0,0-25.97,28.86-25.97,49.24s13.19,23.51,21.53,22.81c8.33-.7,40.76-23.46,44.73-28.06,0,0-10.56,24.84,11.02,39.15,0,0-42.91-3.87-60.27,7.65-17.36,11.52-13.54,30.65-11.81,35.87,1.74,5.22,8.68,17.04,27.78,18.09,19.1,1.04,54.13-7.15,62.36-9.92,0,0-14.77,22.63-10.88,46.82,0,0-24-19.39-67.2-19.05-35.58.28-47.48,19.01-48.17,29.79-.69,10.78-1.04,49.48,44.44,50.08,49.15.65,50.48-7.68,67.11-8.94,0,0-15.76,17.3-3.41,39,0,0-26.43-23.67-48.18-12.59-14.97,7.63-18.99,18.36-18.99,23.57s8.73,24.76,30.13,39.48c0,0-22.51-10.33-40.6,9.16,0,0,4.57-25.34-2.72-40.99-7.29-15.65-14.83-6.82-19.34.14s-5.03,27.25-5.84,33.39c0,0,1.45-18.95-30.52-29.36,0,0,23.58-12.14,25.07-33.41.9-12.91-14.32-32.07-35.94-32.07s-75.43,9.84-84.81,62.36c-9.37,52.52-.35,182.6,2.08,197.2h-28.47s-10.76-105.56-10.76-140.77-1.04-98.17,45.14-146.51c46.18-48.34,94.59-66.78,115.35-94.6,20.76-27.82,16.13-70.04-42.54-56.37,0,0,22.13-22.23,13.8-46.57Z"/>
  <path class="cls-7" d="M542.64,92.86c-34.76-42.13-73.44-58.01-92.61-63.62,18.92,7.5,52.35,27.43,90.35,80.15,34.62,48.02,71.46,106.77,70.42,196.52-.91,78.31-14.51,102.11-28.07,138.14-1.76,4.68-11.95,25.7-18.27,35.1-4.94,7.36-14.79,22.26-27.94,33.03-20.11,16.48-40.09,28.9-62.17,36.75-12.51,4.45-33.01,7.27-60.57,7.27-15.79,0-23.55-2.04-38.59-6.32-34.56-9.84-60.36-44.48-68.83-75.62,6.68,27.3,19.93,53.02,37.7,67.24,40.45,32.36,80.43,36.67,125.7,21.94,43.04-14,69.94-29.78,107.45-80.04,38.36-51.4,42.66-116.94,44.86-189.02,2.21-72.08-30.89-142.68-79.43-201.52Z"/>
  <path class="cls-5" d="M610.8,305.91c-.92,78.3-14.51,102.1-28.06,138.14-1.77,4.68-11.95,25.7-18.27,35.11-4.96,7.35-14.8,22.25-27.95,33.02-20.1,16.48-40.09,28.9-62.17,36.76-12.51,4.45-33.02,7.27-60.58,7.27-15.77,0-23.53-2.05-38.58-6.32-38.14-10.86-65.62-51.96-70.9-85.18-6.29-39.52,12.1-73.21,32.18-81.29,5.43-2.17,12.01-3.38,18.53-3.38,12.01,0,21.5,3.97,26.01,10.88,2.46,3.79,4.6,10.24,1.17,19.79,6.25,2.08,15.92,6.79,19.14,16.44,1.72-.41,3.43-.62,5.1-.62,5.79,0,13.77,2.43,19.33,13.79,4.48-3.15,11.31-6.58,19.76-6.58.43,0,.85.02,1.28.03,0-5.55,2.41-12.36,7.17-20.25,5.53-9.21,22.16-28.05,28.06-28.05.51,0,1.02.02,1.54.08-2.15-5.4-3.27-13.21,1.07-22.6-7.4-2.13-20.58-9.7-18.87-35.37.8-11.92,2.49-17.22,8.42-24.49,3.23-3.99,9.35-8.55,14.71-8.83-1.67-6.52-2.28-17.68,8.04-28.21-8.26-5.84-22.88-24.08-14.57-54.49-9.62-7.24-12.8-18.05-8.63-29.25-7.48-4.81-33.33-20.86-37.78-42.18-3.4,1.25-6.71,1.87-9.85,1.87-4.53,0-11.29-3.64-14.67-6.22-4.27,3.91-13.67,10.24-19.68,12.72-5.02,2.08-6.15,1.99-13.34,2.08-.43,6.01-2.45,15.97-6.24,20.22,4.28,8.63,19.71,26.08,2.49,49.04-3.46,4.6-7.43,8.06-11.92,10.37-4.48,2.31-9.45,3.48-14.9,3.48-19.6,0-34.51-10.09-37.99-13.16-10.06-8.83-41.06-41.31-14.44-123.3,22.16-68.24,96.26-73.54,118.43-73.54,12.46,0,24.55,1.48,31.56,3.82,17.74,5.97,53.67,24.54,94.98,81.86,34.63,48.02,71.47,106.76,70.42,196.52Z"/>
  <path class="cls-6" d="M413.77,551.55c-15.02,0-22.29-1.88-37.32-6.14-35.81-10.2-62.48-49.41-67.57-81.43-5.77-36.24,10.51-68.68,29.32-76.24,4.92-1.96,10.89-3.04,16.79-3.04,10.41,0,18.48,3.2,22.12,8.77,2.69,4.15,2.93,9.43.68,15.68l-1.61,4.48,4.52,1.51c4.91,1.64,13.55,5.57,16.19,13.5l1.35,4.04,4.14-.99c1.38-.33,2.74-.5,4.03-.5,6.42,0,11.52,3.76,15.16,11.18l2.4,4.89,4.46-3.13c3.72-2.62,9.7-5.73,17.08-5.73.37,0,.73.01,1.1.03l4.83.18v-4.83c0-4.62,2.25-10.79,6.51-17.85,5.68-9.44,20.07-24.75,24.23-25.8.27,0,.54.01.81.04l7.81.98-2.91-7.31c-2.39-6-2.06-12.37.97-18.93l2.27-4.92-5.21-1.5c-6.43-1.85-17-8.29-15.52-30.59.76-11.21,2.21-15.5,7.38-21.86,2.72-3.36,7.7-6.94,11.34-7.12l5.68-.3-1.42-5.51c-1.56-6.07-1.63-15.13,6.86-23.8l3.82-3.9-4.46-3.15c-8.18-5.79-20.08-22.73-12.77-49.47l.83-3.05-2.52-1.9c-7.93-5.97-10.51-14.68-7.07-23.91l1.31-3.51-3.8-2.44c-7.71-4.94-31.17-19.97-35.09-38.8l-1.1-5.27-5.06,1.86c-2.87,1.05-5.64,1.59-8.24,1.59-2.91,0-8.58-2.78-11.85-5.27l-3.09-2.36-2.87,2.63c-3.87,3.54-12.9,9.62-18.31,11.85-3.94,1.63-4.44,1.64-10.54,1.72l-5.36.07-.3,4.26c-.44,6.15-2.5,14.58-5.07,17.45l-2.09,2.35,1.4,2.82c.68,1.38,1.58,2.89,2.53,4.49,5.63,9.48,13.33,22.47.41,39.69-3.02,4.01-6.5,7.05-10.33,9.03-3.8,1.96-8.1,2.96-12.77,2.96-17.4,0-31.39-8.89-34.92-12-14.98-13.15-36.59-46-13.09-118.38,21.19-65.25,92.62-70.33,114-70.33,11.78,0,23.59,1.41,30.08,3.58,17.21,5.8,52.15,23.92,92.68,80.17,34.19,47.41,70.58,105.4,69.55,193.74-.8,67.71-10.95,93.56-22.71,123.48-1.67,4.25-3.37,8.57-5.06,13.07-1.64,4.32-11.68,25.07-17.77,34.15l-.46.68c-5.02,7.45-14.36,21.32-26.58,31.33-21.1,17.3-40.41,28.73-60.78,35.98-12.69,4.52-33.65,7-59.02,7Z"/>
  <path class="cls-4" d="M304.29,464.71c.5,3.13,1.19,6.32,2.07,9.56-.81-3.3-1.52-6.62-2.13-9.94.02.13.03.26.05.39Z"/>
  <path class="cls-4" d="M303.8,436.81c.08-.56.16-1.1.23-1.65-.08.55-.16,1.09-.23,1.65Z"/>
  <path class="cls-4" d="M303.78,436.96s0,.04,0,.06c0-.07.01-.14.02-.21,0,.05-.01.1-.02.15Z"/>
  <path class="cls-2" d="M514.7,141.78l-35.38,41.58s-8.64,12.16,4.21,22.62c1.68,1.37,3.7,2.25,5.84,2.53,7.1.93,27.4,2.68,65.7-.46,0,0,3.45-4.04,0-14.11s-7.33-9.06-11.65-20.3c-4.31-11.24-2.59-8.17-11.22-22.62-4.93-8.26-4.37-10.08-5.47-10.95-3.66-2.86-9.01-1.83-12.03,1.72Z"/>
  <path class="cls-1" d="M310.05,173.58l50.69-4.39s13.69-2.4,12.02-17.75c-.22-2.01-.98-3.92-2.21-5.5-4.1-5.27-16.41-19.72-43.86-42.73,0,0-4.93.42-9.24,9.36-4.31,8.94-1.07,10.81-5.57,21.08-4.5,10.28-3.64,7.11-7.38,22.35-2.14,8.7-3.71,9.54-3.54,10.84.56,4.3,4.77,7.12,9.1,6.74Z"/>
  <path class="cls-2" d="M410.17,129.68s-13.15-53.39-13.53-63.09c-.38-9.7,5.7-5.58,11.41-5.08,5.71.51,8.52-.52,15.84-.23,7.32.28,8.51-.52,11.73,2.08,3.22,2.6,8.22,7.04,14.43,7.63,6.21.59,11.73,2.08,14.44,4.59,2.71,2.51.23,4.61,6.09,7.17,5.86,2.56,7.9,2.92,9.93,6.33,2.03,3.4,3.38,4.66,3.46,7.21.07,2.55-25.93,27.95-45.14,37.67,0,0-14.95,9.81-28.66-4.28Z"/>
  <path class="cls-2" d="M504.08,265.42s51.93-16.58,59.04-17.52c7.1-.94,8.43,1.88,8.88,5.63s1.55,3.28,1.11,7.74.67,6.8,1.33,9.84c.67,3.05,2,6.09,2,9.38s.89,1.41,0,5.39c-.89,3.98.35,6.33.39,9.38.05,3.05-.17,7.5-1.06,10.08s-2,8.2-2,11.25,0,8.67-1.11,10.78c-1.11,2.11-2.66,3.52-3.99,6.09s-1.78,2.81-7.77,0c-5.99-2.81-40.17-18.99-43.94-21.33s-20.92-11.14-21.65-13.99-10.05-15.93,8.77-32.72Z"/>
  <path class="cls-2" d="M491.13,359.98s17.64-2.4,30.61-3.06c12.98-.66,42.64-1.31,44.81,0,2.16,1.31.93,4.27,0,7.88-.93,3.61-.93,1.97-.93,6.89s-.31,10.18-1.85,12.8c-1.55,2.63-4.33,7.55-4.64,10.5s1.24,4.6-.93,7.22c-2.16,2.63-2.47,2.63-4.33,7.55-1.85,4.92-.62,6.24-2.16,9.19-1.55,2.95-2.47,3.28-4.64,4.27s-4.33,7.55-8.34,4.27-31.2-26.22-47.89-37.57c0,0-10.25-12.78.28-29.95Z"/>
  <path class="cls-2" d="M423.97,447.26s.16,15.46-.08,34.95c-.22,17.65-3.21,25.05-2.57,34.2.58,8.39,5.83,6.35,9.54,4.99,3.71-1.36,4.03-1.28,10.73-1.62,6.69-.34,5.63.12,9.64-1.92,4.02-2.04,13.39-.68,19.08-2.38,5.69-1.7,7.36-4.08,10.71-6.13,3.35-2.04,2.34-3.06,9.71-5.79,7.36-2.72,2.2-6.58,6.22-10.66,4.02-4.08,4.02-2.38,7.7-6.81,3.68-4.42,8.03-8.17,3.01-11.23-5.02-3.06-22-12.33-31.91-19.74-8.98-6.71-17.91-11.49-23.96-16.57,0,0-15.82-3.39-27.81,8.71Z"/>
  <path class="cls-2" d="M398.25,432.67s-.1,15.72-8.04,41.04c-7.94,25.32-10.77,34.66-15.55,34.6s-4.3-1.73-13.41-7.28c-9.11-5.55-8.09-1.36-15.78-11.58-7.69-10.22-8.83-4.84-13.69-16.19-4.86-11.35.14-14.69-4.32-22.59-4.47-7.9,1.31-11.51,5.16-12.56,3.85-1.05,8.33-4.78,19.65-9.3,11.32-4.52,20.01-17.07,26.25-14.42,6.24,2.65,17.85,4.55,19.73,18.28Z"/>
</svg>