<?xml version="1.0" encoding="UTF-8"?>
<svg id="LK" xmlns="http://www.w3.org/2000/svg" viewBox="0 0 917.01 663.54">
  <defs>
    <style>
      .cls-1 {
        fill: #be7660;
      }

      .cls-1, .cls-2, .cls-3, .cls-4, .cls-5 {
        stroke: #040000;
        stroke-miterlimit: 10;
      }

      .cls-2 {
        fill: #e3d095;
      }

      .cls-3 {
        fill: #e7cccc;
      }

      .cls-4 {
        fill: #d8aa97;
      }

      .cls-5 {
        fill: #9f4a4a;
      }
    </style>
  </defs>
  <g>
    <path class="cls-2" d="M432.22,208.92c-1.86,1.73-13.67-9.14-20.41-20.37-7.38-12.28-22.77-37.65-21.35-49.12,0,0-12.05,39.21-33.63,53.51,0,0,19.3,2.55,30.32,7.57,11.42,5.2,22.9,13.15,31.87,25.69,5.85,8.19,11.85,23.05,12.75,35.3.77,10.49-2.4,21.16-11.96,31.31-6.62,7.03-22.12,9.65-32.71,9.62-11.65-.03-16.18-.08-40.81-11.7,0,0,9.64,49.79.92,64.72,0,0,43-40.12,65.88-31.6,9.76,3.63-16.97,45.74-20.7,49.39-6.12,5.99-16.23,22.9-43.11,27.48,0,0,32.45,6.57,33.96,45.45,0,0,3.57-17.89,10.86-33.54,7.29-15.65,15.77-41.22,34.74-39.39,15.54,1.49,10.46,52.28,3.19,78.27,0,0,12.78-19.57,34.45-8.95,0,0-22.04-3.55-13.08-63.32,2.78-18.56,25.82-35.88,47.44-35.88s66.63,19.8,76,72.32c9.37,52.52.35,182.6-2.08,197.2h28.47s10.76-105.56,10.76-140.77,1.04-98.17-45.14-146.51c-46.18-48.34-96.66-67.01-110.07-99.02-12.75-30.43-12.92-75.24,25.16-89.21,0,0-42.37-1.69-54.03-28.87,0,0,4.82,22.02,3.21,37.1-1.52,14.17-2.1,19.61-1.89,32.46.18,11.14,3.66,28.39,1,30.87Z"/>
    <path class="cls-5" d="M303.97,92.86c34.76-42.13,73.44-58.01,92.61-63.62-18.92,7.5-52.35,27.43-90.35,80.15-34.62,48.02-71.46,106.77-70.42,196.52.91,78.31,14.51,102.11,28.07,138.14,1.76,4.68,11.95,25.7,18.27,35.1,4.94,7.36,14.79,22.26,27.94,33.03,20.11,16.48,40.09,28.9,62.17,36.75,12.51,4.45,33.01,7.27,60.57,7.27,15.79,0,23.55-2.04,38.59-6.32,34.56-9.84,60.36-44.48,68.83-75.62-6.68,27.3-19.93,53.02-37.7,67.24-40.45,32.36-80.43,36.67-125.7,21.94-43.04-14-69.94-29.78-107.45-80.04-38.36-51.4-42.66-116.94-44.86-189.02-2.21-72.08,30.89-142.68,79.43-201.52Z"/>
    <path class="cls-3" d="M453.44,429.88c-1.94-.5-5.8-1.23-10.38.22-3.08.97-6.28,2.14-8.04,4.7-4.48-3.15-13.2-8.09-21.63-8.59-13.64-.8-24.97,6.61-25.39,6.62,0-5.55-.55-12.6-2.94-18.07-1.84-4.21-7.94-11.21-11.25-13.74-3.39-2.59-6.43-3.67-8.61-3.78,3.11-2.78,11.95-8.91,9.96-28.23-1.82-17.66-12.67-20.93-14.73-25.39,1.91-4.63,4.37-16.65,4.29-22.08-.2-13.15-7.37-23.8-7.37-23.8,11.55-2.69,24.54-12.34,29.98-24.95,10.63-24.65,8.48-46.72,4.48-57.96-5.47-15.37-22.61-18.02-26.29-21.51,7.48-4.81,23.4-17.29,27.85-38.61,3.4,1.25,12.58,1.52,22.31-3.19,12.3-5.95,15.49-12.2,17.93-16.78,4.27,3.91,8.63,6.14,14.64,8.61,5.02,2.08,8.45,3.49,15.63,3.59-2.38,7.95-3.56,12.33-4.13,21.06-.36,5.55-.15,15.27.4,22.11.72,8.87,3.34,19.37,11.84,29.76,3.64,4.45,7.43,8.06,11.92,10.37,4.48,2.31,9.45,3.48,14.9,3.48,19.6,0,34.51-10.09,37.99-13.16,10.06-8.83,41.06-41.31,14.44-123.3-22.16-68.24-96.26-73.54-118.43-73.54-12.46,0-24.55,1.48-31.56,3.82-17.74,5.97-53.67,24.54-94.98,81.86-34.63,48.02-71.47,106.76-70.42,196.52.92,78.3,14.51,102.1,28.06,138.14,1.77,4.68,11.95,25.7,18.27,35.11,4.96,7.35,14.8,22.25,27.95,33.02,20.1,16.48,40.09,28.9,62.17,36.76,12.51,4.45,33.02,7.27,60.58,7.27,15.77,0,23.53-2.05,38.58-6.32,38.14-10.86,65.62-51.96,70.9-85.18,6.29-39.52-12.1-73.21-32.18-81.29-5.43-2.17-12.01-3.38-18.53-3.38-11.49,0-24.19,3.8-29.83,9.76-2.61,2.76-7.02,9.41-8.37,13.89-1.62,5.39-1.22,19.59.02,26.19Z"/>
    <path class="cls-4" d="M432.84,550.52c-25.25,0-46.08-2.46-58.67-6.94-20.25-7.21-39.47-18.59-60.47-35.8-12.1-9.91-21.38-23.69-26.37-31.1l-.47-.7c-6.05-9.01-16.03-29.64-17.67-33.94-1.69-4.5-3.39-8.82-5.06-13.08-11.72-29.83-21.84-55.6-22.63-123.11-1.03-88.03,35.26-145.85,69.35-193.12,40.37-56.02,75.08-74.04,92.18-79.8,6.39-2.14,18.07-3.53,29.74-3.53,21.21,0,92.05,5.02,113.02,69.61,23.31,71.81,2,104.3-12.78,117.27-3.46,3.06-17.16,11.75-34.24,11.75-4.5,0-8.64-.96-12.29-2.85-3.34-1.73-6.56-4.56-10.12-8.92-6.38-7.8-9.74-16.26-10.58-26.62-.55-6.85-.72-16.19-.39-21.28.54-8.29,1.65-12.28,3.91-19.8l2.16-7.22-7.53-.1c-6.14-.08-8.77-1.17-13.53-3.15-5.45-2.25-9.32-4.2-12.98-7.56l-5.41-4.95-3.56,6.68c-2.26,4.25-4.83,9.07-15.27,14.13-6.11,2.96-11.42,3.4-14.05,3.4-2.09,0-3.39-.27-3.82-.43l-6.18-2.27-1.34,6.45c-4.07,19.49-19.09,30.96-25.35,34.99l-6.11,3.93,5.27,4.99c1.73,1.63,4.13,2.69,7.17,4.04,6.13,2.7,14.52,6.41,17.66,15.25,3.93,11.05,5.15,31.78-4.34,53.8-4.91,11.38-16.82,19.51-26.04,21.66l-8.03,1.87,4.6,6.84c.05.08,6.23,9.51,6.4,20.71.07,4.69-2.27,16-3.86,19.82l-.95,2.3,1.04,2.26c1.08,2.35,2.93,4.01,4.9,5.77,3.68,3.31,8.27,7.42,9.34,17.82,1.56,15.11-4.23,20.08-7.34,22.75l-.75.66-10.33,9.22,13.82.71c1,.05,3.03.77,5.45,2.62,2.77,2.12,8.15,8.43,9.49,11.5,1.61,3.69,2.46,9.16,2.46,15.8v5.91l5.91-.23c1.37-.05,2.25-.52,3.26-1.07,6.92-3.72,13.6-5.61,19.84-5.61.57,0,1.15.02,1.74.05,6.39.37,13.84,4.15,18.69,7.56l4.69,3.3,3.26-4.71c.81-1.16,3.59-2.04,5.08-2.51,1.23-.39,2.51-.59,3.8-.59,1.14,0,2.26.15,3.45.45l8.66,2.22-1.66-8.79c-1.25-6.62-1.34-19.58-.17-23.5,1.06-3.54,4.95-9.4,7.05-11.62,4.3-4.55,15.35-7.98,25.7-7.98,5.78,0,11.61,1.06,16.42,2.98,18.43,7.41,34.36,39.36,28.67,75.11-5.04,31.7-31.42,70.51-66.84,80.6-14.92,4.23-22.15,6.1-37.03,6.1Z"/>
    <path class="cls-1" d="M459.16,436.64c-.4-.35-.97-.34-1.43-.59-5.53-3-17.56-1.17-20.51,5.11-3.39,7.2-24.51,80.89-22.82,84.28s13.55,7.62,16.51,6.77,11.43-.85,13.97-2.54c2.54-1.69,5.7-.42,11.32-1.69,5.62-1.27,9.01-3.39,11.76-4.66s6.98-3.39,11.64-6.35c4.66-2.96,9.05-3.81,11.3-5.93s3.09-2.12,6.06-4.23c2.96-2.12,3.39-5.09,5.08-7.2,1.69-2.11.85-3.84,3.81-7,2.96-3.16,5.5-3.64,5.08-7.85-.42-4.2-3.81-6.17-8.47-10.27-4.66-4.1-21.59-15.96-28.37-21.46-6.47-5.26-10.62-12.63-14.94-16.39Z"/>
    <path class="cls-1" d="M382.59,423.64c-1.73-9.21-8.8-16.8-15.79-20.46-1.82-.95-5.6-2.5-8.49-1.98-6.65,1.2-19.31,4.98-22.71,6.2-4.6,1.64-25.71,5.17-30.68,6.04s-17.64,4.7-18.48,6.89.27,13.77,2.47,17.84c2.21,4.07-.27,5.96,4.15,11.43,4.42,5.48,3.89,4.97,7.75,11.54,3.86,6.57,4.1,9.03,7.97,12.86,3.86,3.83,4.31,4.12,6.52,8.2,2.21,4.08,3.97,3.3,7.28,7.13,3.31,3.83,3.88,4.6,7.7,7.01,3.33,2.11,5.77,4.26,10.74,5.9,4.97,1.64,4.99,3.68,7.75,5.87,2.76,2.19,3.63,4.3,8.03,3.67,2.99-.43,5.24-3.46,7.18-8.21,3.99-9.76,5.2-18.33,9.28-30.89,3.99-12.27,9.65-28.26,10.38-34.5.65-5.53-.26-10.31-1.06-14.54Z"/>
    <path class="cls-1" d="M385.36,159.54c-1.84,4.77-3.33,9.4-9.94,17.73-4.12,5.19-16.81,14.87-18.27,15.61-5.98,3.02-8.43,4-20.13,7.6-14.61,4.5-31.79,3.63-43.21,1.15-10.45-2.27-9.93-10.9-4.29-16.68,2.37-2.43,4.08-8.85,5.75-11.16,1.12-1.55,1.84-3.78,5.36-10.15,3.73-6.74,5.44-13.45,6.37-14.92,1.52-2.39,3.56-5.17,4.85-7.08,1.38-2.03,2.83-8.01,5.17-10.31,5.01-4.92,7.2-8.62,10.02-13.39,2.9-4.91,7.41-6,9.55-10.92,2.14-4.92,6.26-4.77,9.24-10,2.59-4.56,3.59-2.75,8.6-7.68,5.01-4.92,2.31-4.48,8.57-5.71,6.26-1.23,7.52-3.33,10.65,2.64,2.94,5.6,12.93,46.1,13.82,64.63.13,2.74-1.19,6.28-2.11,8.64Z"/>
    <path class="cls-1" d="M350.69,295.89c5.12,2.9,8.34,17.35,9.16,24.28s-3.19,20.37-4.54,23.49c-2.67,6.18-20.8,21.77-38.43,36.91-13.65,11.71-28.32,12.77-35.7,13.88-7.38,1.12-7.42-24.09-7.67-27.66-.25-3.58-1.75-6.46-3.74-17.21-2-10.75-.11-16.36-1.51-22.95-2.48-11.72-.71-10.18-1.92-18.48-1.2-8.3,2.88-41.48,3.63-45.28,1.64-8.33,15.46-8.82,18.33-7.23,1.37.76,17.55,7.36,30.56,19.52,14.24,13.31,15.43,11.44,31.82,20.73Z"/>
  </g>
  <path class="cls-1" d="M440.4,132.04s-13.15-53.39-13.53-63.09c-.38-9.7,5.7-5.58,11.41-5.08,5.71.51,8.52-.52,15.84-.23,7.32.28,8.51-.52,11.73,2.08,3.22,2.6,8.22,7.04,14.43,7.63,6.21.59,11.73,2.08,14.44,4.59,2.71,2.51.23,4.61,6.09,7.17,5.86,2.56,7.9,2.92,9.93,6.33,2.03,3.4,3.38,4.66,3.46,7.21.07,2.55-25.93,27.95-45.14,37.67,0,0-14.95,9.81-28.66-4.28Z"/>
</svg>